<svg version="1.0" xmlns="http://www.w3.org/2000/svg"
 width="1024.000000pt" height="512.000000pt" viewBox="0 0 1024.000000 512.000000"
 preserveAspectRatio="xMidYMid meet">

<g transform="translate(0.000000,512.000000) scale(0.100000,-0.100000)"
fill="#000000" stroke="none">
<path d="M2743 2921 c-127 -72 -123 -65 -123 -197 0 -104 1 -113 18 -107 33
13 186 104 194 116 10 16 10 225 1 230 -5 2 -45 -17 -90 -42z"/>
<path d="M3239 2916 c-125 -75 -116 -61 -118 -181 -1 -58 1 -110 4 -115 8 -13
189 87 207 114 10 15 10 223 0 229 -4 3 -46 -18 -93 -47z"/>
<path d="M4614 2811 c-125 -31 -171 -155 -86 -233 26 -24 45 -32 127 -57 67
-20 85 -33 85 -57 0 -26 -26 -44 -64 -44 -34 0 -115 28 -147 51 l-26 18 -22
-40 c-13 -22 -20 -46 -17 -54 9 -24 106 -64 172 -71 93 -10 145 1 190 40 38
33 39 36 39 99 0 89 -26 115 -160 156 -67 20 -85 33 -85 57 0 46 71 52 154 13
22 -11 43 -19 48 -19 15 0 47 84 36 97 -25 30 -183 59 -244 44z"/>
<path d="M5071 2813 c-74 -14 -131 -79 -131 -149 0 -61 42 -101 140 -134 118
-38 140 -59 103 -95 -24 -24 -105 -14 -165 19 -26 14 -51 26 -57 26 -18 0 -46
-71 -34 -88 20 -33 102 -64 182 -69 93 -7 142 7 179 49 34 37 44 72 36 121 -9
56 -49 89 -148 121 -52 17 -91 36 -96 47 -13 23 -13 25 6 43 19 19 76 13 142
-16 24 -10 48 -16 52 -13 11 7 40 65 40 80 0 33 -171 73 -249 58z"/>
<path d="M7365 2813 c-39 -9 -81 -32 -105 -58 -21 -22 -25 -37 -25 -85 0 -82
30 -109 160 -149 70 -21 85 -32 85 -62 0 -19 -6 -28 -22 -33 -52 -14 -116 1
-173 40 -21 14 -39 24 -40 22 -16 -18 -45 -92 -38 -98 4 -5 33 -21 63 -36 49
-25 66 -28 151 -29 90 0 98 2 134 29 21 16 40 37 43 48 2 10 8 18 13 18 5 0 9
19 9 43 0 35 -7 51 -36 85 -19 23 -43 42 -53 42 -10 0 -21 3 -25 7 -9 9 -78
33 -97 33 -20 0 -49 31 -49 53 0 40 72 42 159 5 48 -20 50 -20 79 34 l21 36
-22 14 c-46 29 -182 53 -232 41z"/>
<path d="M4091 2778 c-7 -18 -22 -52 -32 -75 -10 -24 -19 -45 -19 -48 0 -2
-13 -34 -30 -70 -16 -36 -30 -68 -30 -70 0 -6 -58 -136 -70 -158 -6 -10 -8
-22 -5 -27 9 -14 102 -12 116 3 6 6 39 81 73 166 34 85 66 156 72 158 6 2 26
-33 44 -79 17 -46 37 -94 42 -108 12 -28 20 -50 39 -100 17 -46 24 -50 87 -50
59 0 63 7 37 66 -36 82 -45 102 -65 154 -12 30 -32 77 -44 105 -12 27 -33 76
-45 108 l-23 57 -67 0 c-65 0 -66 0 -80 -32z"/>
<path d="M5402 2568 l3 -243 55 0 55 0 3 243 2 242 -60 0 -60 0 2 -242z"/>
<path d="M5627 2803 c-9 -8 -9 -446 -1 -467 9 -23 231 -23 302 0 121 39 187
154 160 279 -13 63 -23 82 -61 123 -52 54 -118 72 -266 72 -70 0 -131 -3 -134
-7z m266 -105 c84 -44 99 -174 29 -241 -25 -24 -38 -28 -98 -30 l-69 -2 -3
143 -3 142 61 0 c34 0 71 -5 83 -12z"/>
<path d="M6160 2640 c0 -199 9 -228 85 -280 79 -54 220 -53 290 2 55 43 64 79
66 269 l1 174 -61 3 -61 3 0 -161 c0 -145 -2 -165 -20 -190 -34 -48 -113 -48
-159 1 -20 21 -21 34 -21 186 l0 163 -60 0 -60 0 0 -170z"/>
<path d="M6694 2795 c-4 -8 -4 -89 -2 -178 4 -156 5 -163 31 -203 15 -22 46
-51 70 -65 36 -20 55 -24 134 -24 87 0 93 1 130 31 21 16 48 50 61 74 20 41
22 58 22 212 l0 168 -60 0 -60 0 0 -154 c0 -142 -2 -155 -22 -186 -37 -55
-113 -63 -156 -17 -20 21 -22 36 -24 187 l-3 165 -58 3 c-45 2 -59 0 -63 -13z"/>
<path d="M3060 2507 c-77 -41 -147 -81 -162 -95 -15 -13 -18 -33 -18 -129 0
-62 4 -113 9 -113 16 0 193 102 197 114 3 7 3 63 2 124 l-3 112 -25 -13z"/>
<path d="M3505 2480 c-33 -21 -73 -47 -90 -57 -36 -22 -43 -45 -44 -156 -1
-67 2 -89 13 -93 18 -7 183 91 196 116 17 32 9 231 -9 229 -3 0 -33 -18 -66
-39z"/>
<path d="M4136 2455 c-14 -36 -26 -70 -26 -75 0 -6 25 -10 55 -10 45 0 55 3
55 17 0 22 -43 133 -51 133 -4 0 -19 -29 -33 -65z"/>
</g>
</svg>
